<svg xmlns="http://www.w3.org/2000/svg" width="36" height="32" viewBox="0 0 36 32">
  <path id="instruments" d="M37.523,2.008,33.648,3.065a1.333,1.333,0,0,0-.982,1.286V9.211c0,1.663-4,.434-4,3.906a2.228,2.228,0,0,0,2.31,2.216C33.323,15.333,34,13.55,34,11.57V6.516l3.667-1.1A.415.415,0,0,0,38,5.013V2.4A.4.4,0,0,0,37.523,2.008ZM19.333,4.667c-3.681,0-6.667.9-6.667,2,0,.82,4,2,4,7.333V34H22V14c0-5.333,4-6.513,4-7.333C26,5.563,23.015,4.667,19.333,4.667ZM8.667,10.674a4.02,4.02,0,0,0-4,4v8.659A2.666,2.666,0,0,0,7.333,26H11.2a1.322,1.322,0,0,0,1.32-1.542,8.95,8.95,0,0,0-3.984-5.49c-1.081-.737-1.2-.61-1.2-2.3V14.674a1.333,1.333,0,1,1,2.667,0c0,.77-.427.729-.427.729a1.333,1.333,0,1,0,.854,2.526,3.771,3.771,0,0,0,2.24-3.255A4.02,4.02,0,0,0,8.667,10.674Zm-6,6a.667.667,0,1,0,.667.667A.667.667,0,0,0,2.667,16.674Zm28,1.326C28.089,18,26,18.6,26,19.333c0,.531,2.667,2.032,2.667,5.333h4c0-3.343,2.667-4.8,2.667-5.333C35.333,18.6,33.244,18,30.667,18Zm-28,1.341a.667.667,0,1,0,.667.667A.667.667,0,0,0,2.667,19.341Zm0,2.667a.667.667,0,1,0,.667.667A.667.667,0,0,0,2.667,22.008ZM20,23.333a.667.667,0,1,1-.667.667A.667.667,0,0,1,20,23.333ZM20,26a.667.667,0,1,1-.667.667A.667.667,0,0,1,20,26Zm6.667,1.333a.667.667,0,1,0,.667.667A.667.667,0,0,0,26.667,27.333Zm2,0V34h4V27.333ZM6,28.667V34h5.333V28.667Zm14,0a.667.667,0,1,1-.667.667A.667.667,0,0,1,20,28.667ZM26.667,30a.667.667,0,1,0,.667.667A.667.667,0,0,0,26.667,30Zm0,2.667a.667.667,0,1,0,.667.667A.667.667,0,0,0,26.667,32.667Z" transform="translate(-2 -2)" fill="#353A5D" />
</svg>
