<svg xmlns="http://www.w3.org/2000/svg" width="110.122" height="120.989" viewBox="0 0 110.122 120.989">
  <g id="posts-empty" transform="translate(0 0.002)">
    <path id="Path_203" data-name="Path 203" d="M160.319,31.84l.276,9.827L89.077,19.5,88,10.515Z" transform="translate(-50.474 -6.032)" fill="#bf1e2e"/>
    <path id="Path_204" data-name="Path 204" d="M94.71,133.249,7.072,106.209,42.648,30.625,114.178,53.2Z" transform="translate(-4.056 -17.565)" fill="#f9e8e9"/>
    <path id="Path_205" data-name="Path 205" d="M37.531,10.515l1.061,8.576L3.016,94.675,0,89.432Z" transform="translate(0 -6.032)" fill="#bf1e2e"/>
    <path id="Path_206" data-name="Path 206" d="M56.2,30.44,30.783,119.29l82.856,18.254,12.556-74.671-4.624-6.927-3.951-6.214Z" transform="translate(-17.655 -17.459)" fill="#fff" stroke="#353a5d" stroke-width="1.5"/>
    <g id="Group_973" data-name="Group 973" transform="translate(36.509 36.669)">
      <path id="Path_207" data-name="Path 207" d="M155.23,100.514a.378.378,0,0,1-.085-.01L97.3,86.727A.373.373,0,1,1,97.472,86l57.843,13.777a.373.373,0,0,1-.085.736Z" transform="translate(-92.138 -85.986)" fill="#353a5d"/>
      <path id="Path_208" data-name="Path 208" d="M150.182,132.158a.384.384,0,0,1-.085-.01L91.919,118.268a.373.373,0,0,1,.173-.725l58.176,13.878a.373.373,0,0,1-.085.736Z" transform="translate(-89.073 -104.082)" fill="#353a5d"/>
      <path id="Path_209" data-name="Path 209" d="M144.706,162.244a.378.378,0,0,1-.081-.009l-58.724-13a.373.373,0,0,1,.161-.729l58.724,13a.373.373,0,0,1-.08.738Z" transform="translate(-85.608 -121.839)" fill="#353a5d"/>
    </g>
    <path id="Path_210" data-name="Path 210" d="M178.258,246.464a.369.369,0,0,1-.08-.009l-24.221-5.3a.373.373,0,1,1,.159-.729l24.221,5.3a.373.373,0,0,1-.079.738Z" transform="translate(-88.132 -137.891)" fill="#353a5d"/>
    <path id="Path_211" data-name="Path 211" d="M225.166,75.782l-6.548,12.8,15.307.295Z" transform="translate(-125.385 -43.465)" fill="#d9d9d9"/>
    <path id="Path_212" data-name="Path 212" d="M227.721,73.943l-4.189,11.732,13.211,2.148-8.4-12.93Z" transform="translate(-128.204 -42.41)" fill="#f2f2f2"/>
    <path id="Path_213" data-name="Path 213" d="M124.325,51.82a3.323,3.323,0,1,1,3.323-3.323A3.323,3.323,0,0,1,124.325,51.82Zm0-5.9A2.577,2.577,0,1,0,126.9,48.5a2.577,2.577,0,0,0-2.576-2.577Z" transform="translate(-69.399 -25.91)" fill="#353a5d"/>
    <path id="Path_214" data-name="Path 214" d="M162.57,63.212a3.323,3.323,0,1,1,3.323-3.323A3.323,3.323,0,0,1,162.57,63.212Zm0-5.9a2.577,2.577,0,1,0,2.577,2.577,2.577,2.577,0,0,0-2.577-2.577Z" transform="translate(-91.334 -32.444)" fill="#353a5d"/>
    <path id="Path_215" data-name="Path 215" d="M200.813,74.6a3.323,3.323,0,1,1,3.323-3.323A3.323,3.323,0,0,1,200.813,74.6Zm0-5.9a2.577,2.577,0,1,0,2.576,2.576,2.577,2.577,0,0,0-2.576-2.576Z" transform="translate(-113.268 -38.977)" fill="#353a5d"/>
    <path id="Path_216" data-name="Path 216" d="M112.586,21.841a.64.64,0,0,1-.612-.828,20.561,20.561,0,0,0,.518-8.467,20.028,20.028,0,0,0-2.9-8.407c-1.356-2.016-2.888-3.024-4.315-2.839-1.493.194-2.79,1.731-3.564,4.216q-.093.3-.176.618a.64.64,0,0,1-1.237-.322q.091-.347.193-.676c.939-3.026,2.58-4.838,4.617-5.1,1.934-.253,3.9.953,5.544,3.393a21.3,21.3,0,0,1,3.108,8.956,21.86,21.86,0,0,1-.564,9.009.64.64,0,0,1-.614.451Z" transform="translate(-57.518 0)" fill="#353a5d"/>
    <path id="Path_217" data-name="Path 217" d="M151.258,34.786a.64.64,0,0,1-.61-.832,19.574,19.574,0,0,0,.525-8.188c-.818-6.276-4.057-11.247-7.068-10.854-1.425.186-2.684,1.609-3.454,3.9a.64.64,0,1,1-1.213-.407c.946-2.818,2.544-4.512,4.5-4.767,3.829-.5,7.563,4.754,8.5,11.958a20.875,20.875,0,0,1-.575,8.737A.64.64,0,0,1,151.258,34.786Z" transform="translate(-79.954 -7.807)" fill="#353a5d"/>
    <path id="Path_218" data-name="Path 218" d="M188.782,46.745a.624.624,0,0,1-.18-.026.64.64,0,0,1-.434-.794,21,21,0,0,0,.453-8.362c-.836-6.412-4-11.506-6.891-11.131-1.332.174-2.516,1.564-3.246,3.815a.64.64,0,1,1-1.217-.395c.9-2.78,2.429-4.445,4.3-4.691,3.71-.483,7.368,4.891,8.325,12.236a22.289,22.289,0,0,1-.495,8.886A.64.64,0,0,1,188.782,46.745Z" transform="translate(-101.651 -14.415)" fill="#353a5d"/>
    <path id="Path_219" data-name="Path 219" d="M334.574,52.19l-5.8,4.759-4.755-5.8,5.8-4.759Z" transform="translate(-301.114 42.256)" fill="#fd9b19"/>
  </g>
</svg>
