<svg fill="none" height="14" viewBox="0 0 14 14" width="14" xmlns="http://www.w3.org/2000/svg"><g clip-path="url(#clip0_2_754)"><path d="M3.231 2.154C2.80198 2.14646 2.37576 2.22444 1.9772 2.38339C1.57865 2.54235 1.21575 2.77911 0.909684 3.07983C0.603619 3.38056 0.360519 3.73924 0.194573 4.13494C0.0286279 4.53063 -0.056839 4.95542 -0.056839 5.3845C-0.056839 5.81359 0.0286279 6.23837 0.194573 6.63407C0.360519 7.02977 0.603619 7.38845 0.909684 7.68917C1.21575 7.9899 1.57865 8.22665 1.9772 8.38561C2.37576 8.54457 2.80198 8.62255 3.231 8.615C3.304 8.615 3.373 8.599 3.445 8.594C3.16936 8.95594 2.80967 9.24525 2.39707 9.43692C1.98447 9.62858 1.53137 9.71682 1.077 9.694C0.791363 9.694 0.517423 9.80747 0.315447 10.0094C0.11347 10.2114 6.96629e-07 10.4854 6.96629e-07 10.771C6.96629e-07 11.0566 0.11347 11.3306 0.315447 11.5326C0.517423 11.7345 0.791363 11.848 1.077 11.848C4.646 11.848 6.462 8.955 6.462 5.387C6.46226 4.96253 6.37888 4.54217 6.21663 4.14994C6.05437 3.75771 5.81642 3.40129 5.51637 3.10105C5.21632 2.80081 4.86005 2.56264 4.46791 2.40014C4.07578 2.23764 3.65547 2.154 3.231 2.154Z" fill="#444A58"></path><path d="M10.769 2.154C10.34 2.14646 9.91375 2.22444 9.5152 2.38339C9.11664 2.54235 8.75374 2.77911 8.44768 3.07983C8.14161 3.38056 7.89851 3.73924 7.73257 4.13494C7.56662 4.53063 7.48116 4.95542 7.48116 5.3845C7.48116 5.81359 7.56662 6.23837 7.73257 6.63407C7.89851 7.02977 8.14161 7.38845 8.44768 7.68917C8.75374 7.9899 9.11664 8.22665 9.5152 8.38561C9.91375 8.54457 10.34 8.62255 10.769 8.615C10.843 8.615 10.912 8.599 10.984 8.594C10.7083 8.95608 10.3484 9.24549 9.93562 9.43716C9.52282 9.62883 9.06953 9.71699 8.615 9.694C8.32936 9.694 8.05542 9.80747 7.85344 10.0094C7.65146 10.2114 7.538 10.4854 7.538 10.771C7.538 11.0566 7.65146 11.3306 7.85344 11.5326C8.05542 11.7345 8.32936 11.848 8.615 11.848C12.184 11.846 14 8.953 14 5.385C14.0001 4.96067 13.9166 4.54046 13.7543 4.1484C13.592 3.75634 13.354 3.4001 13.054 3.10005C12.7539 2.8 12.3977 2.56201 12.0056 2.39968C11.6135 2.23735 11.1933 2.15387 10.769 2.154Z" fill="#444A58"></path></g><defs><clipPath id="clip0_2_754"><rect fill="white" height="14" width="14"></rect></clipPath></defs></svg>